<svg xmlns="http://www.w3.org/2000/svg" xmlns:xlink="http://www.w3.org/1999/xlink" width="1080" zoomAndPan="magnify" viewBox="0 0 810 809.999993" height="1080" preserveAspectRatio="xMidYMid meet" version="1.0"><path fill="#b9e050" d="M 262.363281 438.804688 C 289.617188 511.925781 306.035156 589.066406 310.921875 666.933594 C 312.058594 685.09375 312.578125 703.355469 315.71875 721.269531 C 318.855469 739.191406 324.761719 756.972656 335.652344 771.542969 C 345.792969 785.097656 360.007812 795.433594 375.753906 801.667969 C 391.5 807.894531 408.722656 810.097656 425.605469 808.859375 C 441.011719 807.722656 456.308594 803.699219 469.792969 796.167969 C 483.269531 788.636719 494.871094 777.496094 502.035156 763.816406 C 510 748.589844 512.199219 731.078125 513.621094 713.953125 C 515.691406 689.0625 516.429688 664.074219 519.019531 639.238281 C 525.90625 573.132812 546.078125 508.429688 577.980469 450.113281 L 529.113281 419.222656 C 509.75 445.03125 492.152344 472.167969 476.488281 500.378906 C 468.757812 514.300781 461.484375 528.496094 454.710938 542.917969 L 442.65625 404.808594 L 395.695312 403.480469 L 380.644531 538.015625 L 310.183594 424.777344 L 262.363281 438.804688 " fill-opacity="1" fill-rule="nonzero"/><path fill="#acdb3a" d="M 554.273438 466.429688 C 538.195312 498.007812 524.484375 530.769531 513.289062 564.386719 C 499.535156 605.699219 489.5625 648.386719 485.679688 691.746094 C 484.792969 701.578125 484.21875 711.457031 482.460938 721.167969 C 480.699219 730.871094 477.6875 740.488281 472.3125 748.761719 C 466.242188 758.085938 457.3125 765.378906 447.335938 770.320312 C 437.359375 775.257812 426.363281 777.914062 415.289062 779.027344 C 398.871094 780.679688 382.1875 778.996094 366.289062 774.585938 C 352.347656 770.714844 339.042969 764.691406 326.839844 756.925781 C 329.351562 762.046875 332.230469 766.96875 335.652344 771.542969 C 345.785156 785.105469 360.015625 795.433594 375.761719 801.667969 C 391.507812 807.894531 408.714844 810.097656 425.605469 808.859375 C 441.003906 807.722656 456.308594 803.707031 469.785156 796.167969 C 483.269531 788.636719 494.871094 777.503906 502.035156 763.816406 C 510.007812 748.589844 512.199219 731.070312 513.621094 713.945312 C 515.691406 689.0625 516.4375 664.082031 519.019531 639.246094 C 525.050781 581.328125 541.289062 524.488281 566.667969 472.074219 C 562.574219 470.113281 558.464844 468.183594 554.273438 466.429688 " fill-opacity="1" fill-rule="nonzero"/><path fill="#419538" d="M 477.433594 0 C 446.71875 0 417.558594 13.480469 397.671875 36.878906 C 383.886719 27.746094 367.714844 22.859375 351.167969 22.84375 C 310.082031 22.894531 275.019531 52.566406 268.1875 93.074219 C 256.238281 88.796875 243.636719 86.59375 230.941406 86.546875 C 201.261719 86.546875 172.796875 98.328125 151.8125 119.308594 C 130.824219 140.296875 119.03125 168.746094 119.039062 198.417969 C 119.046875 215.960938 123.171875 233.25 131.101562 248.898438 C 93.980469 262.78125 69.382812 298.238281 69.359375 337.859375 C 69.414062 384.972656 103.996094 424.9375 150.625 431.769531 C 155.503906 475.644531 192.574219 508.84375 236.730469 508.898438 C 273.453125 508.84375 306.167969 485.664062 318.390625 451.042969 C 331.535156 471.210938 353.976562 483.390625 378.050781 483.398438 C 404.421875 483.371094 428.625 468.792969 440.957031 445.496094 C 451.691406 464.667969 471.941406 476.5625 493.917969 476.59375 C 507.859375 476.578125 521.375 471.78125 532.191406 462.992188 C 544.742188 496.230469 576.558594 518.238281 612.09375 518.253906 C 634.75 518.253906 656.488281 509.253906 672.515625 493.226562 C 688.539062 477.210938 697.542969 455.476562 697.542969 432.824219 C 697.519531 420.101562 694.648438 407.550781 689.148438 396.078125 C 721.34375 375.53125 740.828125 339.980469 740.828125 301.796875 C 740.804688 261.28125 718.875 223.941406 683.503906 204.1875 C 689.542969 192.136719 692.707031 178.84375 692.738281 165.363281 C 692.738281 142.226562 683.542969 120.042969 667.175781 103.683594 C 650.8125 87.328125 628.625 78.136719 605.480469 78.136719 C 596.675781 78.167969 587.933594 79.535156 579.539062 82.183594 C 568.992188 34.242188 526.539062 0.0625 477.433594 0 " fill-opacity="1" fill-rule="nonzero"/><path fill="#397e33" d="M 477.695312 0.015625 C 481.671875 1.636719 485.578125 3.453125 489.292969 5.609375 C 507.148438 16.011719 521.390625 32.460938 529.136719 51.609375 C 538.179688 73.949219 538.179688 99.796875 529.136719 122.144531 C 546.726562 112.007812 568.898438 110.230469 587.875 117.433594 C 606.847656 124.632812 622.246094 140.675781 628.671875 159.925781 C 632.90625 172.609375 633.34375 186.539062 629.878906 199.46875 C 626.417969 212.390625 619.066406 224.242188 609.058594 233.117188 C 626.039062 231.566406 643.570312 237.273438 656.382812 248.527344 C 669.207031 259.761719 677.140625 276.398438 677.8125 293.433594 C 678.5 310.757812 671.648438 328.242188 659.378906 340.5 C 647.121094 352.765625 629.636719 359.617188 612.300781 358.9375 C 623.390625 369.257812 629.523438 384.683594 628.570312 399.808594 C 627.613281 414.921875 619.574219 429.449219 607.257812 438.28125 C 595.558594 446.691406 580.210938 449.828125 566.148438 446.714844 C 552.078125 443.601562 539.5 434.277344 532.441406 421.71875 C 530.308594 437.398438 521.367188 452.03125 508.390625 461.089844 C 499.527344 467.269531 488.890625 470.871094 478.097656 471.363281 C 474.867188 471.503906 471.640625 471.289062 468.433594 470.886719 C 476.414062 474.609375 485.109375 476.554688 493.925781 476.59375 C 507.859375 476.578125 521.375 471.78125 532.199219 462.992188 C 544.742188 496.230469 576.558594 518.230469 612.09375 518.246094 C 634.757812 518.246094 656.496094 509.246094 672.515625 493.226562 C 688.539062 477.210938 697.542969 455.476562 697.542969 432.824219 C 697.519531 420.101562 694.648438 407.550781 689.148438 396.078125 C 721.34375 375.523438 740.828125 339.980469 740.828125 301.789062 C 740.8125 261.273438 718.875 223.941406 683.503906 204.1875 C 689.542969 192.136719 692.707031 178.835938 692.738281 165.355469 C 692.738281 142.226562 683.542969 120.035156 667.183594 103.675781 C 650.820312 87.320312 628.625 78.136719 605.480469 78.136719 C 596.683594 78.167969 587.933594 79.527344 579.539062 82.183594 C 569.007812 34.34375 526.695312 0.199219 477.695312 0.015625 " fill-opacity="1" fill-rule="nonzero"/><path fill="#53bf36" d="M 225.597656 104.703125 C 201.410156 105.433594 178.15625 116.34375 162.085938 134.441406 C 142.738281 156.25 135.316406 187.148438 142.625 215.351562 C 143.242188 218.472656 145.125 221.207031 147.820312 222.90625 C 150.515625 224.597656 153.789062 225.105469 156.871094 224.304688 C 159.945312 223.507812 162.5625 221.46875 164.09375 218.679688 C 165.628906 215.890625 165.945312 212.59375 164.964844 209.566406 C 159.667969 189.164062 165.367188 165.535156 179.367188 149.78125 C 191.050781 136.621094 208.691406 128.339844 226.277344 127.820312 C 232.664062 127.628906 237.683594 122.304688 237.496094 115.917969 C 237.304688 109.542969 231.976562 104.515625 225.597656 104.703125 " fill-opacity="1" fill-rule="nonzero"/><path fill="#53bf36" d="M 328.128906 40.269531 C 313.148438 45.613281 300.738281 56.699219 293.734375 70.976562 C 292.15625 73.742188 291.792969 77.046875 292.722656 80.097656 C 293.65625 83.148438 295.816406 85.675781 298.675781 87.082031 C 301.539062 88.488281 304.855469 88.648438 307.84375 87.527344 C 310.824219 86.402344 313.21875 84.089844 314.445312 81.148438 C 318.707031 72.457031 326.785156 65.257812 335.898438 62 C 342.59375 59.613281 350.109375 59.148438 357.042969 60.695312 C 360.09375 61.527344 363.34375 61.078125 366.054688 59.449219 C 368.757812 57.820312 370.679688 55.15625 371.375 52.074219 C 372.0625 48.992188 371.460938 45.761719 369.707031 43.128906 C 367.949219 40.507812 365.191406 38.714844 362.085938 38.167969 C 350.8125 35.65625 339.003906 36.382812 328.128906 40.269531 " fill-opacity="1" fill-rule="nonzero"/><path fill="#d0ea81" d="M 316.941406 524.433594 C 314.273438 524.441406 311.75 525.65625 310.066406 527.726562 C 308.390625 529.796875 307.734375 532.523438 308.28125 535.132812 C 312.207031 555.703125 315.632812 576.359375 318.601562 597.085938 C 321.363281 616.34375 323.734375 635.664062 325.667969 655.027344 C 325.867188 657.394531 327.011719 659.585938 328.847656 661.109375 C 330.679688 662.628906 333.042969 663.355469 335.414062 663.109375 C 337.78125 662.871094 339.953125 661.695312 341.445312 659.839844 C 342.941406 657.988281 343.621094 655.609375 343.34375 653.238281 C 341.390625 633.632812 339.019531 614.085938 336.222656 594.574219 C 333.210938 573.578125 329.71875 552.613281 325.742188 531.773438 C 324.988281 527.515625 321.273438 524.410156 316.941406 524.433594 " fill-opacity="1" fill-rule="nonzero"/><path fill="#393637" d="M 364.117188 581.226562 C 354.117188 581.410156 346.046875 589.761719 346.230469 599.757812 C 346.253906 601.0625 346.78125 602.300781 347.722656 603.203125 C 348.65625 604.113281 349.914062 604.609375 351.21875 604.585938 C 352.519531 604.5625 353.761719 604.015625 354.65625 603.078125 C 355.566406 602.136719 356.054688 600.878906 356.023438 599.574219 C 355.929688 594.867188 359.578125 591.089844 364.300781 591 C 369.011719 590.914062 372.789062 594.558594 372.875 599.265625 C 372.859375 600.59375 373.375 601.875 374.3125 602.808594 C 375.253906 603.738281 376.527344 604.253906 377.847656 604.238281 C 379.175781 604.214844 380.433594 603.652344 381.339844 602.6875 C 382.242188 601.71875 382.714844 600.429688 382.652344 599.101562 C 382.464844 589.113281 374.117188 581.042969 364.117188 581.226562 " fill-opacity="1" fill-rule="nonzero"/><path fill="#393637" d="M 453.902344 640.4375 C 450.988281 644.46875 447.453125 648.046875 443.46875 651.011719 C 434.253906 657.871094 422.664062 661.332031 411.179688 661.164062 C 400.035156 661 388.984375 657.492188 379.726562 651.296875 C 375.066406 648.175781 370.726562 644.207031 368.589844 639.03125 C 367.800781 637.121094 367.328125 635.058594 367.335938 632.988281 C 367.335938 630.925781 367.832031 628.835938 368.859375 627.042969 C 369.808594 625.417969 371.167969 624.050781 372.75 623.023438 C 374.328125 621.996094 376.109375 621.300781 377.941406 620.878906 C 381.617188 620.050781 385.441406 620.328125 389.175781 620.847656 C 396.113281 621.8125 402.929688 623.613281 409.898438 624.371094 C 413.882812 624.808594 417.921875 624.894531 421.890625 624.371094 C 426.894531 623.71875 431.707031 622.113281 436.554688 620.707031 C 439.144531 619.957031 441.777344 619.253906 444.472656 619.132812 C 447.167969 619.007812 449.960938 619.503906 452.210938 620.992188 C 454.125 622.246094 455.570312 624.183594 456.371094 626.332031 C 457.167969 628.480469 457.335938 630.84375 457.003906 633.113281 C 456.605469 635.769531 455.53125 638.3125 453.894531 640.445312 L 453.902344 640.4375 " fill-opacity="1" fill-rule="nonzero"/><path fill="#231f20" d="M 449.667969 619.8125 C 449.96875 625.125 448.773438 630.519531 446.140625 635.144531 C 442.828125 640.960938 437.460938 645.402344 431.566406 648.578125 C 418.230469 655.746094 401.964844 656.675781 387.449219 652.363281 C 382.773438 650.972656 378.257812 649.042969 373.996094 646.65625 C 375.753906 648.378906 377.6875 649.9375 379.71875 651.296875 C 388.984375 657.492188 400.042969 661.007812 411.179688 661.164062 C 422.664062 661.332031 434.253906 657.871094 443.46875 651.011719 C 447.453125 648.046875 450.988281 644.460938 453.902344 640.4375 C 455.539062 638.304688 456.613281 635.761719 457.011719 633.113281 C 457.34375 630.835938 457.191406 628.472656 456.378906 626.324219 C 455.570312 624.175781 454.140625 622.246094 452.21875 620.984375 C 451.4375 620.46875 450.566406 620.105469 449.675781 619.8125 L 449.667969 619.8125 " fill-opacity="1" fill-rule="nonzero"/><path fill="#f03c4f" d="M 414.5 639.410156 C 409.605469 639.410156 404.714844 640.097656 399.988281 641.457031 C 392.929688 643.480469 386.273438 647.027344 380.472656 651.761719 C 389.578125 657.648438 400.328125 661.007812 411.179688 661.164062 C 422.664062 661.332031 434.253906 657.871094 443.46875 651.019531 C 444.164062 650.496094 444.828125 649.9375 445.5 649.382812 C 440.457031 645.8125 434.878906 643.09375 429.027344 641.425781 C 424.292969 640.074219 419.394531 639.402344 414.5 639.410156 " fill-opacity="1" fill-rule="nonzero"/><path fill="#ef3041" d="M 437.574219 644.699219 C 435.683594 646.152344 433.660156 647.449219 431.566406 648.578125 C 418.230469 655.746094 401.964844 656.675781 387.449219 652.363281 C 385.65625 651.832031 383.902344 651.191406 382.164062 650.511719 C 381.601562 650.933594 381.015625 651.320312 380.472656 651.753906 C 389.578125 657.648438 400.328125 661.007812 411.179688 661.164062 C 422.664062 661.332031 434.253906 657.871094 443.46875 651.011719 C 444.164062 650.496094 444.828125 649.9375 445.5 649.382812 C 442.980469 647.597656 440.332031 646.03125 437.574219 644.699219 " fill-opacity="1" fill-rule="nonzero"/><path fill="#ffffff" d="M 444.472656 619.125 C 441.777344 619.246094 439.144531 619.949219 436.5625 620.699219 C 431.714844 622.105469 426.894531 623.710938 421.890625 624.363281 C 417.921875 624.886719 413.882812 624.800781 409.90625 624.363281 C 402.9375 623.613281 396.121094 621.8125 389.175781 620.839844 C 386.179688 620.421875 383.128906 620.191406 380.132812 620.539062 C 380.621094 622.601562 381.71875 624.515625 383.292969 625.921875 C 384.613281 627.113281 386.210938 627.953125 387.839844 628.679688 C 394.867188 631.808594 402.628906 632.988281 410.320312 633.136719 C 415.851562 633.246094 421.386719 632.8125 426.894531 632.265625 C 430.484375 631.902344 434.144531 631.46875 437.382812 629.898438 C 439.414062 628.910156 441.242188 627.488281 442.554688 625.652344 C 443.914062 623.765625 444.6875 621.457031 444.757812 619.132812 C 444.671875 619.132812 444.554688 619.125 444.457031 619.125 L 444.472656 619.125 " fill-opacity="1" fill-rule="nonzero"/><path fill="#ededed" d="M 444.472656 619.125 C 441.875 619.246094 439.34375 619.90625 436.847656 620.628906 C 436.933594 622.261719 436.507812 623.929688 435.636719 625.296875 C 434.863281 626.492188 433.746094 627.4375 432.515625 628.132812 C 430.378906 629.320312 427.921875 629.730469 425.511719 630.03125 C 420.390625 630.664062 415.234375 630.898438 410.082031 630.980469 C 404.382812 631.074219 398.605469 630.941406 393.132812 629.367188 C 388.636719 628.070312 384.472656 625.738281 380.929688 622.699219 C 381.507812 623.90625 382.296875 625.027344 383.292969 625.929688 C 384.613281 627.121094 386.21875 627.953125 387.839844 628.679688 C 394.867188 631.808594 402.628906 632.988281 410.320312 633.136719 C 415.851562 633.238281 421.386719 632.8125 426.894531 632.265625 C 430.484375 631.902344 434.152344 631.46875 437.390625 629.898438 C 439.414062 628.910156 441.242188 627.488281 442.5625 625.652344 C 443.921875 623.765625 444.6875 621.457031 444.765625 619.132812 C 444.671875 619.132812 444.554688 619.125 444.464844 619.125 L 444.472656 619.125 " fill-opacity="1" fill-rule="nonzero"/><path fill="#f25166" d="M 500.003906 631.238281 C 500.003906 634.378906 498.476562 637.378906 495.757812 639.59375 C 493.046875 641.804688 489.355469 643.054688 485.515625 643.054688 C 481.671875 643.054688 477.988281 641.804688 475.269531 639.59375 C 472.550781 637.378906 471.023438 634.378906 471.023438 631.238281 C 471.023438 628.109375 472.550781 625.109375 475.269531 622.894531 C 477.988281 620.675781 481.671875 619.433594 485.515625 619.433594 C 489.355469 619.433594 493.046875 620.675781 495.757812 622.894531 C 498.476562 625.109375 500.003906 628.109375 500.003906 631.238281 " fill-opacity="1" fill-rule="nonzero"/><path fill="#f25166" d="M 354.203125 632.402344 C 354.203125 635.53125 352.679688 638.542969 349.960938 640.746094 C 347.242188 642.96875 343.558594 644.207031 339.714844 644.207031 C 335.875 644.207031 332.191406 642.96875 329.472656 640.746094 C 326.753906 638.542969 325.226562 635.53125 325.226562 632.402344 C 325.226562 629.273438 326.753906 626.261719 329.472656 624.050781 C 332.191406 621.835938 335.875 620.585938 339.714844 620.585938 C 343.558594 620.585938 347.242188 621.835938 349.960938 624.050781 C 352.679688 626.261719 354.203125 629.273438 354.203125 632.402344 " fill-opacity="1" fill-rule="nonzero"/><path fill="#393637" d="M 458.757812 581.226562 C 448.757812 581.410156 440.695312 589.761719 440.878906 599.757812 C 440.863281 601.078125 441.375 602.355469 442.316406 603.289062 C 443.25 604.222656 444.527344 604.734375 445.855469 604.710938 C 447.175781 604.6875 448.433594 604.128906 449.335938 603.15625 C 450.242188 602.191406 450.71875 600.902344 450.648438 599.574219 C 450.550781 594.867188 454.21875 591.089844 458.9375 591 C 463.648438 590.914062 467.4375 594.558594 467.515625 599.265625 C 467.5 600.59375 468.011719 601.875 468.953125 602.808594 C 469.894531 603.738281 471.167969 604.253906 472.496094 604.238281 C 473.816406 604.214844 475.070312 603.652344 475.980469 602.6875 C 476.882812 601.71875 477.355469 600.429688 477.292969 599.101562 C 477.101562 589.113281 468.757812 581.042969 458.757812 581.226562 " fill-opacity="1" fill-rule="nonzero"/></svg>