<svg xmlns="http://www.w3.org/2000/svg" xmlns:xlink="http://www.w3.org/1999/xlink" width="1080" zoomAndPan="magnify" viewBox="0 0 810 809.999993" height="1080" preserveAspectRatio="xMidYMid meet" version="1.0"><defs><g/></defs><g fill="#121610" fill-opacity="1"><g transform="translate(75.196265, 478.674727)"><g><path d="M 124.828125 8.765625 C 112.128906 -10.953125 99.753906 -29.75 87.703125 -47.625 C 75.660156 -65.507812 65.769531 -79.960938 58.03125 -90.984375 C 50.289062 -102.015625 45.398438 -108.988281 43.359375 -111.90625 L 42.265625 -111.90625 L 41.171875 -18.390625 C 41.171875 -15.179688 41.679688 -12.921875 42.703125 -11.609375 C 43.722656 -10.296875 45.476562 -9.640625 47.96875 -9.640625 L 59.125 -9.859375 L 59.5625 -8.984375 L 57.59375 0.875 C 55.988281 0.726562 52.703125 0.546875 47.734375 0.328125 C 42.773438 0.109375 38.328125 0 34.390625 0 C 30.734375 0 26.75 0.253906 22.4375 0.765625 C 18.132812 1.273438 15.328125 1.601562 14.015625 1.75 L 15.109375 -8.328125 C 19.640625 -8.910156 23 -10.257812 25.1875 -12.375 C 27.375 -14.488281 28.539062 -17.738281 28.6875 -22.125 L 31.53125 -117.828125 C 31.53125 -122.347656 30.179688 -125.554688 27.484375 -127.453125 C 24.785156 -129.359375 19.785156 -130.675781 12.484375 -131.40625 L 11.828125 -132.5 L 13.578125 -140.59375 C 14.890625 -140.445312 17.734375 -140.226562 22.109375 -139.9375 C 26.492188 -139.644531 29.925781 -139.5 32.40625 -139.5 C 35.476562 -139.5 38.472656 -139.609375 41.390625 -139.828125 C 44.304688 -140.046875 46.203125 -140.226562 47.078125 -140.375 C 57.890625 -123.582031 68.734375 -107.15625 79.609375 -91.09375 C 90.484375 -75.039062 99.570312 -61.832031 106.875 -51.46875 C 114.175781 -41.101562 118.773438 -34.53125 120.671875 -31.75 L 121.765625 -31.75 L 121.765625 -120.453125 C 121.765625 -126.722656 119.351562 -129.859375 114.53125 -129.859375 L 106.21875 -129.640625 L 105.78125 -130.53125 L 107.75 -140.375 C 109.207031 -140.226562 111.976562 -140.046875 116.0625 -139.828125 C 120.15625 -139.609375 124.316406 -139.5 128.546875 -139.5 C 132.347656 -139.5 136.546875 -139.753906 141.140625 -140.265625 C 145.742188 -140.773438 148.773438 -141.101562 150.234375 -141.25 L 149.140625 -131.1875 C 144.023438 -130.457031 140.300781 -129.03125 137.96875 -126.90625 C 135.632812 -124.789062 134.394531 -121.617188 134.25 -117.390625 L 131.1875 5.6875 Z M 124.828125 8.765625 "/></g></g></g><g fill="#121610" fill-opacity="1"><g transform="translate(232.644441, 478.674727)"><g><path d="M 81.46875 2.625 C 69.644531 2.625 63.148438 -3.285156 61.984375 -15.109375 L 61.09375 -15.328125 C 55.84375 -10.078125 51.0625 -5.914062 46.75 -2.84375 C 42.445312 0.21875 39.203125 1.75 37.015625 1.75 C 28.835938 1.75 22.117188 -0.800781 16.859375 -5.90625 C 11.609375 -11.019531 8.984375 -17.519531 8.984375 -25.40625 C 8.984375 -29.632812 10.039062 -33.351562 12.15625 -36.5625 C 14.269531 -39.78125 17.082031 -41.898438 20.59375 -42.921875 L 62.203125 -54.3125 L 62.421875 -63.953125 C 62.421875 -71.242188 60.738281 -76.929688 57.375 -81.015625 C 54.019531 -85.109375 49.273438 -87.15625 43.140625 -87.15625 C 39.054688 -87.15625 34.75 -86.207031 30.21875 -84.3125 C 25.695312 -82.414062 21.242188 -79.71875 16.859375 -76.21875 L 15.765625 -76.875 L 13.140625 -86.28125 C 20.003906 -90.226562 26.898438 -93.769531 33.828125 -96.90625 C 40.765625 -100.039062 45.769531 -101.609375 48.84375 -101.609375 C 58.332031 -101.609375 65.773438 -99.125 71.171875 -94.15625 C 76.578125 -89.195312 79.28125 -82.265625 79.28125 -73.359375 C 79.28125 -70.148438 78.769531 -63.582031 77.75 -53.65625 C 76.144531 -37.59375 75.34375 -27.375 75.34375 -23 C 75.34375 -19.78125 76.144531 -17.296875 77.75 -15.546875 C 79.351562 -13.796875 81.539062 -12.921875 84.3125 -12.921875 C 86.644531 -12.921875 89.050781 -13.46875 91.53125 -14.5625 C 94.019531 -15.65625 95.992188 -16.929688 97.453125 -18.390625 L 100.515625 -14.890625 C 98.328125 -11.242188 95.515625 -7.703125 92.078125 -4.265625 C 88.648438 -0.835938 85.113281 1.457031 81.46875 2.625 Z M 40.734375 -13.140625 C 43.503906 -13.140625 46.75 -14.125 50.46875 -16.09375 C 54.195312 -18.0625 57.59375 -20.582031 60.65625 -23.65625 L 61.765625 -45.984375 L 31.96875 -37.015625 C 27.738281 -35.703125 25.625 -32.632812 25.625 -27.8125 C 25.625 -23.582031 27.046875 -20.078125 29.890625 -17.296875 C 32.734375 -14.523438 36.347656 -13.140625 40.734375 -13.140625 Z M 40.734375 -13.140625 "/></g></g></g><g fill="#121610" fill-opacity="1"><g transform="translate(334.69012, 478.674727)"><g><path d="M 45.109375 2.625 C 35.179688 2.625 28.171875 0.617188 24.078125 -3.390625 C 19.992188 -7.410156 17.953125 -14.238281 17.953125 -23.875 L 17.953125 -77.75 C 17.953125 -81.6875 17.078125 -84.457031 15.328125 -86.0625 C 13.578125 -87.664062 10.289062 -88.539062 5.46875 -88.6875 L 4.59375 -90.015625 L 5.6875 -96.578125 C 9.925781 -98.617188 14.050781 -101.132812 18.0625 -104.125 C 22.082031 -107.125 25.367188 -109.753906 27.921875 -112.015625 C 30.472656 -114.273438 32.113281 -115.773438 32.84375 -116.515625 L 37.234375 -114.75 C 37.085938 -114.019531 36.867188 -112.269531 36.578125 -109.5 C 36.285156 -106.726562 35.921875 -103.003906 35.484375 -98.328125 L 67.671875 -98.984375 L 68.328125 -98.328125 L 66.359375 -86.71875 L 34.609375 -87.375 C 33.578125 -71.320312 33.0625 -53.070312 33.0625 -32.625 C 33.0625 -25.1875 34.335938 -19.929688 36.890625 -16.859375 C 39.453125 -13.796875 43.875 -12.265625 50.15625 -12.265625 C 52.34375 -12.265625 54.53125 -12.554688 56.71875 -13.140625 C 58.90625 -13.722656 60.726562 -14.34375 62.1875 -15 C 63.65625 -15.65625 64.609375 -16.054688 65.046875 -16.203125 L 67.234375 -10.515625 C 66.359375 -9.785156 64.492188 -8.394531 61.640625 -6.34375 C 58.796875 -4.300781 55.726562 -2.296875 52.4375 -0.328125 C 49.15625 1.640625 46.710938 2.625 45.109375 2.625 Z M 45.109375 2.625 "/></g></g></g><g fill="#121610" fill-opacity="1"><g transform="translate(406.954209, 478.674727)"><g><path d="M 53.875 2.625 C 44.820312 2.625 36.789062 0.617188 29.78125 -3.390625 C 22.769531 -7.410156 17.367188 -13.101562 13.578125 -20.46875 C 9.785156 -27.84375 7.890625 -36.273438 7.890625 -45.765625 C 7.890625 -55.546875 10.113281 -64.742188 14.5625 -73.359375 C 19.019531 -81.972656 24.96875 -88.832031 32.40625 -93.9375 C 39.851562 -99.050781 47.8125 -101.609375 56.28125 -101.609375 C 66.9375 -101.609375 75.035156 -98.90625 80.578125 -93.5 C 86.128906 -88.101562 88.90625 -80.222656 88.90625 -69.859375 C 88.90625 -65.628906 88.46875 -62.050781 87.59375 -59.125 L 84.75 -56.5 L 24.3125 -56.5 C 24.164062 -42.34375 26.972656 -31.429688 32.734375 -23.765625 C 38.503906 -16.097656 46.570312 -12.265625 56.9375 -12.265625 C 65.113281 -12.265625 74.019531 -14.523438 83.65625 -19.046875 L 84.96875 -18.609375 L 87.375 -12.265625 C 82.125 -8.460938 76.320312 -5.03125 69.96875 -1.96875 C 63.613281 1.09375 58.25 2.625 53.875 2.625 Z M 64.828125 -66.578125 C 67.015625 -66.867188 68.472656 -67.378906 69.203125 -68.109375 C 69.929688 -68.835938 70.296875 -70.296875 70.296875 -72.484375 C 70.296875 -78.328125 68.722656 -82.78125 65.578125 -85.84375 C 62.441406 -88.914062 57.957031 -90.453125 52.125 -90.453125 C 45.257812 -90.453125 39.378906 -88.113281 34.484375 -83.4375 C 29.597656 -78.769531 26.5 -72.492188 25.1875 -64.609375 Z M 64.828125 -66.578125 "/></g></g></g><g fill="#121610" fill-opacity="1"><g transform="translate(505.058234, 478.674727)"><g><path d="M 71.609375 -6.34375 C 75.992188 -7.519531 79.132812 -9.238281 81.03125 -11.5 C 82.925781 -13.757812 83.875 -16.789062 83.875 -20.59375 L 84.75 -63.953125 C 84.75 -71.242188 83.179688 -76.859375 80.046875 -80.796875 C 76.910156 -84.742188 72.421875 -86.71875 66.578125 -86.71875 C 61.898438 -86.71875 57.148438 -85.515625 52.328125 -83.109375 C 47.515625 -80.703125 43.285156 -78.113281 39.640625 -75.34375 C 38.328125 -45.113281 37.671875 -27.15625 37.671875 -21.46875 C 37.671875 -16.9375 38.253906 -13.757812 39.421875 -11.9375 C 40.585938 -10.113281 42.628906 -9.203125 45.546875 -9.203125 C 47.160156 -9.203125 48.695312 -9.273438 50.15625 -9.421875 C 51.613281 -9.566406 52.632812 -9.640625 53.21875 -9.640625 L 53.65625 -8.765625 L 51.6875 0.65625 C 50.375 0.507812 47.816406 0.363281 44.015625 0.21875 C 40.222656 0.0703125 36.132812 0 31.75 0 C 27.957031 0 23.757812 0.179688 19.15625 0.546875 C 14.5625 0.910156 11.535156 1.164062 10.078125 1.3125 L 11.171875 -7.671875 C 15.398438 -8.398438 18.390625 -9.710938 20.140625 -11.609375 C 21.898438 -13.503906 22.78125 -16.5 22.78125 -20.59375 L 22.78125 -74.015625 C 22.78125 -78.984375 21.972656 -82.453125 20.359375 -84.421875 C 18.753906 -86.390625 15.984375 -87.375 12.046875 -87.375 L 9.640625 -87.375 L 8.984375 -88.25 L 9.640625 -95.484375 C 15.910156 -96.503906 22.148438 -97.707031 28.359375 -99.09375 C 34.566406 -100.476562 38.546875 -101.390625 40.296875 -101.828125 L 41.609375 -100.078125 C 41.316406 -99.203125 40.878906 -97.34375 40.296875 -94.5 C 39.710938 -91.65625 39.347656 -88.695312 39.203125 -85.625 L 39.640625 -84.96875 C 56.285156 -96.0625 67.015625 -101.609375 71.828125 -101.609375 C 81.023438 -101.609375 88.320312 -99.050781 93.71875 -93.9375 C 99.125 -88.832031 101.828125 -81.972656 101.828125 -73.359375 C 101.828125 -71.898438 101.390625 -65.1875 100.515625 -53.21875 C 99.347656 -38.03125 98.765625 -27.445312 98.765625 -21.46875 C 98.765625 -17.226562 99.347656 -14.125 100.515625 -12.15625 C 101.679688 -10.1875 103.65625 -9.203125 106.4375 -9.203125 C 108.039062 -9.203125 109.570312 -9.273438 111.03125 -9.421875 C 112.488281 -9.566406 113.507812 -9.640625 114.09375 -9.640625 L 114.53125 -8.765625 L 112.78125 0.65625 C 111.46875 0.507812 108.984375 0.363281 105.328125 0.21875 C 101.679688 0.0703125 97.671875 0 93.296875 0 C 89.492188 0 85.144531 0.363281 80.25 1.09375 C 75.363281 1.820312 72.191406 2.332031 70.734375 2.625 Z M 71.609375 -6.34375 "/></g></g></g><g fill="#121610" fill-opacity="1"><g transform="translate(625.060484, 478.674727)"><g><path d="M 104.03125 -92.640625 C 101.25 -92.203125 94.96875 -91.546875 85.1875 -90.671875 L 84.3125 -89.578125 C 90.15625 -83.148438 93.078125 -75.703125 93.078125 -67.234375 C 93.078125 -60.222656 91.140625 -53.722656 87.265625 -47.734375 C 83.398438 -41.753906 78.179688 -37.046875 71.609375 -33.609375 C 65.046875 -30.179688 57.820312 -28.46875 49.9375 -28.46875 C 45.695312 -28.46875 41.609375 -29.050781 37.671875 -30.21875 C 34.304688 -28.320312 31.894531 -26.570312 30.4375 -24.96875 C 28.976562 -23.363281 28.25 -21.753906 28.25 -20.140625 C 28.25 -16.785156 30.507812 -14.453125 35.03125 -13.140625 C 39.5625 -11.828125 46.644531 -10.585938 56.28125 -9.421875 C 65.769531 -8.253906 73.429688 -7.046875 79.265625 -5.796875 C 85.109375 -4.554688 90.144531 -2.332031 94.375 0.875 C 98.613281 4.082031 100.734375 8.535156 100.734375 14.234375 C 100.734375 20.660156 98.140625 26.863281 92.953125 32.84375 C 87.773438 38.832031 80.988281 43.6875 72.59375 47.40625 C 64.195312 51.132812 55.546875 53 46.640625 53 C 36.273438 53 28.132812 50.40625 22.21875 45.21875 C 16.3125 40.039062 13.359375 32.925781 13.359375 23.875 C 15.398438 21.238281 18.351562 18.171875 22.21875 14.671875 C 26.09375 11.171875 30.367188 7.664062 35.046875 4.15625 L 35.046875 2.84375 C 27.453125 1.53125 21.609375 -0.945312 17.515625 -4.59375 C 13.429688 -8.25 11.316406 -12.921875 11.171875 -18.609375 C 16.859375 -24.015625 22.988281 -28.6875 29.5625 -32.625 L 29.5625 -33.5 C 24.457031 -36.425781 20.476562 -40.332031 17.625 -45.21875 C 14.78125 -50.113281 13.359375 -55.628906 13.359375 -61.765625 C 13.359375 -68.910156 15.21875 -75.515625 18.9375 -81.578125 C 22.664062 -87.640625 27.628906 -92.492188 33.828125 -96.140625 C 40.035156 -99.785156 46.789062 -101.609375 54.09375 -101.609375 C 57.445312 -101.609375 61.609375 -101.171875 66.578125 -100.296875 C 70.222656 -99.566406 73.21875 -99.203125 75.5625 -99.203125 C 82.125 -99.929688 92.195312 -102.125 105.78125 -105.78125 L 106.4375 -104.90625 Z M 54.96875 -38.109375 C 61.6875 -38.109375 66.976562 -40.222656 70.84375 -44.453125 C 74.71875 -48.691406 76.65625 -54.535156 76.65625 -61.984375 C 76.65625 -70.441406 74.316406 -77.300781 69.640625 -82.5625 C 64.972656 -87.820312 58.914062 -90.453125 51.46875 -90.453125 C 44.75 -90.453125 39.453125 -88.257812 35.578125 -83.875 C 31.710938 -79.5 29.78125 -73.585938 29.78125 -66.140625 C 29.78125 -57.816406 32.113281 -51.0625 36.78125 -45.875 C 41.457031 -40.695312 47.519531 -38.109375 54.96875 -38.109375 Z M 44.453125 4.59375 C 40.078125 7.664062 36.71875 11.0625 34.375 14.78125 C 32.039062 18.5 30.875 22.1875 30.875 25.84375 C 30.875 30.800781 32.988281 34.773438 37.21875 37.765625 C 41.457031 40.765625 47.082031 42.265625 54.09375 42.265625 C 59.644531 42.265625 64.9375 41.28125 69.96875 39.3125 C 75.007812 37.34375 79.0625 34.675781 82.125 31.3125 C 85.1875 27.957031 86.71875 24.382812 86.71875 20.59375 C 86.71875 17.664062 85.625 15.328125 83.4375 13.578125 C 81.25 11.828125 77.195312 10.296875 71.28125 8.984375 C 65.375 7.671875 56.429688 6.207031 44.453125 4.59375 Z M 44.453125 4.59375 "/></g></g></g></svg>